<?xml version="1.0" encoding="UTF-8"?>
<!DOCTYPE svg PUBLIC "-//W3C//DTD SVG 1.0//EN" "http://www.w3.org/TR/2001/REC-SVG-20010904/DTD/svg10.dtd">
<!-- Creator: CorelDRAW 2018 (64-Bit Evaluation Version) -->
<svg xmlns="http://www.w3.org/2000/svg" xml:space="preserve" width="170.446mm" height="134.705mm" version="1.0" shape-rendering="geometricPrecision" text-rendering="geometricPrecision" image-rendering="optimizeQuality" fill-rule="evenodd" clip-rule="evenodd"
viewBox="0 0 15554.04 12292.47"
 xmlns:xlink="http://www.w3.org/1999/xlink">
 <g id="Layer_x0020_1">
  <metadata id="CorelCorpID_0Corel-Layer"/>
  <path fill="#fff" d="M15550.17 0c-734.51,1499.42 -3054.51,1735.26 -4762.85,1721.62 -3436.25,-42.4 -6642.93,-1306.53 -6197.83,1999.92 -2771.08,155.64 -4682.53,2279.96 -4585.99,3007.13 1340.72,-505.8 2774.85,-535.84 3465.64,-371.23 76.41,1165.15 1992.73,2000.44 3290.43,2492.33 -852.48,-1231.1 -1545.98,-3757.93 851.58,-4374.31 148.59,-29.92 208.32,-41.44 387.2,-51.4 3739.17,-161.29 7696.72,-1328.92 7551.81,-4424.05z"/>
  <path fill="#fff" d="M3222.8 7435.04c991.52,6592.67 8872.7,5920.02 10350.49,1295.36 386.6,302.26 890.64,163.68 1291.89,42.07 -1111.59,-1154.11 22.55,-3620.53 -1232.38,-3585.36l-5942.18 180.9c362.16,1647.19 1053.23,2504.33 3129.67,2678.7 -1698.55,2534.72 -6085.18,1385.49 -7597.49,-611.66z"/>
 </g>
</svg>
