<?xml version="1.0" encoding="UTF-8"?>
<!DOCTYPE svg PUBLIC "-//W3C//DTD SVG 1.1//EN" "http://www.w3.org/Graphics/SVG/1.1/DTD/svg11.dtd">
<!-- Creator: CorelDRAW 2018 (64-Bit Evaluation Version) -->
<svg xmlns="http://www.w3.org/2000/svg" xml:space="preserve" width="80.5055mm" height="104.294mm" version="1.1" style="shape-rendering:geometricPrecision; text-rendering:geometricPrecision; image-rendering:optimizeQuality; fill-rule:evenodd; clip-rule:evenodd"
viewBox="0 0 8009.43 10376.13"
 xmlns:xlink="http://www.w3.org/1999/xlink">
 <defs>
  <style type="text/css">
   <![CDATA[
    .fil2 {fill:#1E85EB}
    .fil0 {fill:#6A21EA}
    .fil1 {fill:#7320EE}
   ]]>
  </style>
 </defs>
 <g id="Layer_x0020_1">
  <metadata id="CorelCorpID_0Corel-Layer"/>
  <path class="fil0" d="M1806.22 1973.19l2.92 0 2147.58 0c1175.42,-37.49 1996.22,924.1 2024.95,2066.21l0 5333.99 -0.03 3.29c1.1,553.99 457.7,999.45 1011.93,999.45 554.23,0 1014.74,-443.82 1015.84,-997.81l-0.22 -4.93 -0.22 -5956.57c-70.99,-1719.66 -1692.13,-3442.85 -3670.22,-3416.52 -840.87,11.19 -1687.83,6.98 -2532.56,3.22l0 3.92c-541.48,1.58 -979.97,441 -979.97,982.85 0,541.86 438.49,981.27 979.97,982.85l0 0.04z"/>
  <polygon class="fil1" points="3558.08,5198.87 4316.19,5198.87 4316.19,5999.09 5116.41,5999.09 5116.41,6757.2 4316.19,6757.2 4316.19,7557.42 3558.08,7557.42 3558.08,6757.2 2757.86,6757.2 2757.86,5999.09 3558.08,5999.09 "/>
  <path class="fil2" d="M3986.89 4363.09c-1112.9,0 -2015.07,902.17 -2015.07,2015.07 0,1112.87 902.17,2015.04 2015.07,2015.04 1112.87,0 2015.04,-902.17 2015.04,-2015.04 0,-1112.9 -902.17,-2015.07 -2015.04,-2015.07zm-0.01 -1971.83c2201.9,0 3986.88,1784.99 3986.88,3986.88 0,2201.9 -1784.99,3986.88 -3986.88,3986.88 -2201.9,0 -3986.88,-1784.99 -3986.88,-3986.88 0,-2201.9 1784.99,-3986.88 3986.88,-3986.88z"/>
 </g>
</svg>
