<?xml version="1.0" encoding="UTF-8"?>
<!DOCTYPE svg PUBLIC "-//W3C//DTD SVG 1.0//EN" "http://www.w3.org/TR/2001/REC-SVG-20010904/DTD/svg10.dtd">
<!-- Creator: CorelDRAW 2018 (64-Bit Evaluation Version) -->
<svg xmlns="http://www.w3.org/2000/svg" xml:space="preserve" width="127px" height="100px" version="1.0" shape-rendering="geometricPrecision" text-rendering="geometricPrecision" image-rendering="optimizeQuality" fill-rule="evenodd" clip-rule="evenodd"
viewBox="0 0 115.89 91.59"
 xmlns:xlink="http://www.w3.org/1999/xlink">
 <g id="Layer_x0020_1">
  <metadata id="CorelCorpID_0Corel-Layer"/>
  <g id="_2852453545664">
   <path fill="#000000" d="M115.87 0c-5.48,11.17 -22.76,12.93 -35.49,12.83 -25.61,-0.32 -49.5,-9.74 -46.18,14.9 -20.65,1.16 -34.89,16.99 -34.17,22.41 9.99,-3.77 20.67,-4 25.82,-2.77 0.57,8.68 14.85,14.9 24.52,18.57 -6.36,-9.17 -11.52,-28 6.34,-32.59 1.11,-0.23 1.55,-0.31 2.89,-0.39 27.86,-1.2 57.34,-9.9 56.27,-32.96z"/>
   <path fill="#000000" d="M24.01 55.4c7.39,49.12 66.11,44.11 77.13,9.65 2.88,2.25 6.63,1.22 9.62,0.31 -8.28,-8.6 0.17,-26.97 -9.18,-26.71l-44.28 1.35c2.7,12.27 7.85,18.66 23.32,19.96 -12.65,18.88 -45.34,10.32 -56.61,-4.56z"/>
  </g>
 </g>
</svg>
